<mxfile host="app.diagrams.net" modified="2023-11-07T20:44:51.814Z" agent="Mozilla/5.0 (Windows NT 10.0; Win64; x64) AppleWebKit/537.36 (KHTML, like Gecko) Chrome/119.0.0.0 Safari/537.36 Edg/119.0.0.0" etag="EpYn8rEUKR6F9ilJpDQF" version="22.0.8" type="github">
  <diagram name="Page-1" id="e7e014a7-5840-1c2e-5031-d8a46d1fe8dd">
    <mxGraphModel dx="815" dy="434" grid="1" gridSize="10" guides="1" tooltips="1" connect="1" arrows="1" fold="1" page="1" pageScale="1" pageWidth="1169" pageHeight="826" background="none" math="0" shadow="0">
      <root>
        <mxCell id="0" />
        <mxCell id="1" parent="0" />
        <mxCell id="jEJKZMpfQrTB2BDF9ggj-69" style="edgeStyle=orthogonalEdgeStyle;rounded=0;orthogonalLoop=1;jettySize=auto;html=1;exitX=1;exitY=1;exitDx=0;exitDy=0;exitPerimeter=0;entryX=0;entryY=0.5;entryDx=0;entryDy=0;" edge="1" parent="1" source="jEJKZMpfQrTB2BDF9ggj-41" target="jEJKZMpfQrTB2BDF9ggj-61">
          <mxGeometry relative="1" as="geometry" />
        </mxCell>
        <mxCell id="jEJKZMpfQrTB2BDF9ggj-70" style="edgeStyle=orthogonalEdgeStyle;rounded=0;orthogonalLoop=1;jettySize=auto;html=1;exitX=0.5;exitY=0.5;exitDx=0;exitDy=0;exitPerimeter=0;entryX=0;entryY=0.5;entryDx=0;entryDy=0;" edge="1" parent="1" source="jEJKZMpfQrTB2BDF9ggj-41" target="jEJKZMpfQrTB2BDF9ggj-62">
          <mxGeometry relative="1" as="geometry" />
        </mxCell>
        <mxCell id="jEJKZMpfQrTB2BDF9ggj-72" style="edgeStyle=orthogonalEdgeStyle;rounded=0;orthogonalLoop=1;jettySize=auto;html=1;exitX=1;exitY=0.3333333333333333;exitDx=0;exitDy=0;exitPerimeter=0;entryX=0;entryY=0.5;entryDx=0;entryDy=0;" edge="1" parent="1" source="jEJKZMpfQrTB2BDF9ggj-41" target="jEJKZMpfQrTB2BDF9ggj-64">
          <mxGeometry relative="1" as="geometry" />
        </mxCell>
        <mxCell id="jEJKZMpfQrTB2BDF9ggj-41" value="Utente" style="shape=umlActor;verticalLabelPosition=bottom;verticalAlign=top;html=1;" vertex="1" parent="1">
          <mxGeometry x="30" y="330" width="30" height="60" as="geometry" />
        </mxCell>
        <mxCell id="jEJKZMpfQrTB2BDF9ggj-47" value="Azienda Car-Sharing&lt;br&gt;" style="shape=umlActor;verticalLabelPosition=bottom;verticalAlign=top;html=1;outlineConnect=0;" vertex="1" parent="1">
          <mxGeometry x="570" y="140" width="30" height="60" as="geometry" />
        </mxCell>
        <mxCell id="jEJKZMpfQrTB2BDF9ggj-73" style="edgeStyle=orthogonalEdgeStyle;rounded=0;orthogonalLoop=1;jettySize=auto;html=1;exitX=0.5;exitY=1;exitDx=0;exitDy=0;" edge="1" parent="1" source="jEJKZMpfQrTB2BDF9ggj-60">
          <mxGeometry relative="1" as="geometry">
            <mxPoint x="299.8571428571429" y="170" as="targetPoint" />
          </mxGeometry>
        </mxCell>
        <mxCell id="jEJKZMpfQrTB2BDF9ggj-60" value="Registrarsi" style="ellipse;whiteSpace=wrap;html=1;" vertex="1" parent="1">
          <mxGeometry x="230" y="60" width="140" height="70" as="geometry" />
        </mxCell>
        <mxCell id="jEJKZMpfQrTB2BDF9ggj-61" value="Accedere" style="ellipse;whiteSpace=wrap;html=1;" vertex="1" parent="1">
          <mxGeometry x="230" y="250" width="140" height="70" as="geometry" />
        </mxCell>
        <mxCell id="jEJKZMpfQrTB2BDF9ggj-62" value="Prenotare un veicolo" style="ellipse;whiteSpace=wrap;html=1;" vertex="1" parent="1">
          <mxGeometry x="230" y="343" width="140" height="70" as="geometry" />
        </mxCell>
        <mxCell id="jEJKZMpfQrTB2BDF9ggj-63" value="Condividere un veicolo" style="ellipse;whiteSpace=wrap;html=1;" vertex="1" parent="1">
          <mxGeometry x="230" y="440" width="140" height="70" as="geometry" />
        </mxCell>
        <mxCell id="jEJKZMpfQrTB2BDF9ggj-64" value="Pagare un servizio" style="ellipse;whiteSpace=wrap;html=1;" vertex="1" parent="1">
          <mxGeometry x="230" y="530" width="140" height="70" as="geometry" />
        </mxCell>
        <mxCell id="jEJKZMpfQrTB2BDF9ggj-65" style="edgeStyle=orthogonalEdgeStyle;rounded=0;orthogonalLoop=1;jettySize=auto;html=1;entryX=0;entryY=0.429;entryDx=0;entryDy=0;entryPerimeter=0;exitX=1;exitY=0.3333333333333333;exitDx=0;exitDy=0;exitPerimeter=0;" edge="1" parent="1" source="jEJKZMpfQrTB2BDF9ggj-41" target="jEJKZMpfQrTB2BDF9ggj-60">
          <mxGeometry relative="1" as="geometry">
            <mxPoint x="60" y="310" as="sourcePoint" />
          </mxGeometry>
        </mxCell>
        <mxCell id="jEJKZMpfQrTB2BDF9ggj-71" style="edgeStyle=orthogonalEdgeStyle;rounded=0;orthogonalLoop=1;jettySize=auto;html=1;exitX=0.5;exitY=0.5;exitDx=0;exitDy=0;exitPerimeter=0;entryX=-0.007;entryY=0.583;entryDx=0;entryDy=0;entryPerimeter=0;" edge="1" parent="1" source="jEJKZMpfQrTB2BDF9ggj-41" target="jEJKZMpfQrTB2BDF9ggj-63">
          <mxGeometry relative="1" as="geometry" />
        </mxCell>
        <mxCell id="jEJKZMpfQrTB2BDF9ggj-74" value="Conferma via mail" style="ellipse;whiteSpace=wrap;html=1;" vertex="1" parent="1">
          <mxGeometry x="230" y="170" width="140" height="70" as="geometry" />
        </mxCell>
      </root>
    </mxGraphModel>
  </diagram>
</mxfile>
